<!DOCTYPE svg PUBLIC "-//W3C//DTD SVG 1.1//EN" "http://www.w3.org/Graphics/SVG/1.1/DTD/svg11.dtd">
<!-- Uploaded to: SVG Repo, www.svgrepo.com, Transformed by: SVG Repo Mixer Tools -->
<svg fill="#000000" height="64px" width="64px" version="1.1" id="Icons" xmlns="http://www.w3.org/2000/svg" xmlns:xlink="http://www.w3.org/1999/xlink" viewBox="0 0 32 32" xml:space="preserve" transform="rotate(270)">
<g id="SVGRepo_bgCarrier" stroke-width="0"/>
<g id="SVGRepo_tracerCarrier" stroke-linecap="round" stroke-linejoin="round"/>
<g id="SVGRepo_iconCarrier"> <path d="M27.2,18.3c-3-3-6.5-3.4-9-0.8c0,0,0,0,0,0c-0.3,0.3-0.6,0.6-0.8,1c-1.4-1.2-2.6-2.5-3.8-3.8c0.4-0.3,0.7-0.5,1-0.8 c2.5-2.5,2.2-6-0.8-9c-3-3-6.5-3.4-9-0.8c-2.7,2.7-3.1,7.4-1,10.6c3.5,5.2,8.6,10.4,13.8,13.8c1.4,0.9,3,1.3,4.6,1.3 c2.2,0,4.4-0.8,5.9-2.3C30.6,24.8,30.3,21.3,27.2,18.3z"/> </g>
</svg>